<mxfile host="Electron" agent="Mozilla/5.0 (Windows NT 10.0; Win64; x64) AppleWebKit/537.36 (KHTML, like Gecko) draw.io/27.0.9 Chrome/134.0.6998.205 Electron/35.4.0 Safari/537.36" version="27.0.9">
  <diagram id="6a731a19-8d31-9384-78a2-239565b7b9f0" name="Page-1">
    <mxGraphModel dx="1426" dy="22" grid="1" gridSize="10" guides="1" tooltips="1" connect="1" arrows="1" fold="1" page="1" pageScale="1" pageWidth="1169" pageHeight="827" background="none" math="0" shadow="0">
      <root>
        <mxCell id="0" />
        <mxCell id="1" parent="0" />
        <mxCell id="p6_sRNCzpyY48abny09--183" value="" style="strokeColor=#FFFFFF;fillColor=#BAC8D3;fontSize=18;strokeWidth=2;fontFamily=Helvetica;html=1;opacity=60;" parent="1" vertex="1">
          <mxGeometry x="244" y="1346.5" width="816" height="239.5" as="geometry" />
        </mxCell>
        <mxCell id="56" value="&amp;nbsp; &amp;nbsp; &amp;nbsp; &amp;nbsp; &amp;nbsp; &amp;nbsp; &amp;nbsp; &amp;nbsp; &amp;nbsp; &amp;nbsp; &amp;nbsp; &amp;nbsp; &amp;nbsp; &amp;nbsp; &amp;nbsp; &amp;nbsp; &amp;nbsp; &amp;nbsp; &amp;nbsp; &lt;font style=&quot;font-size: 28px;&quot;&gt;HRChatbot&lt;/font&gt;" style="strokeColor=#BAC8D3;fillColor=#23445D;fontSize=24;strokeWidth=2;fontFamily=Helvetica;html=1;fontColor=#FFFFFF;fontStyle=0;spacingBottom=8;spacingRight=0;spacingLeft=83;align=left;" parent="1" vertex="1">
          <mxGeometry x="240" y="850.5" width="820" height="80" as="geometry" />
        </mxCell>
        <mxCell id="57" value="Step 1" style="strokeColor=#BAC8D3;fillColor=#23445D;fontSize=24;strokeWidth=2;horizontal=0;fontFamily=Helvetica;html=1;fontColor=#FFFFFF;fontStyle=0" parent="1" vertex="1">
          <mxGeometry x="154" y="930.5" width="88" height="169.5" as="geometry" />
        </mxCell>
        <mxCell id="59" value="" style="strokeColor=#BAC8D3;fillColor=#5d7f99;fontSize=19;strokeWidth=2;fontFamily=Helvetica;html=1;labelBackgroundColor=none;fontColor=#FFFFFF;" parent="1" vertex="1">
          <mxGeometry x="154" y="850.5" width="90" height="80" as="geometry" />
        </mxCell>
        <mxCell id="68" value="" style="strokeColor=#FFFFFF;fillColor=#BAC8D3;fontSize=18;strokeWidth=2;fontFamily=Helvetica;html=1;opacity=60;" parent="1" vertex="1">
          <mxGeometry x="244" y="930.5" width="816" height="169.5" as="geometry" />
        </mxCell>
        <mxCell id="p6_sRNCzpyY48abny09--152" value="Step 2" style="strokeColor=#BAC8D3;fillColor=#23445D;fontSize=24;strokeWidth=2;horizontal=0;fontFamily=Helvetica;html=1;fontColor=#FFFFFF;fontStyle=0" parent="1" vertex="1">
          <mxGeometry x="154" y="1103" width="88" height="239" as="geometry" />
        </mxCell>
        <mxCell id="p6_sRNCzpyY48abny09--153" value="" style="strokeColor=#FFFFFF;fillColor=#BAC8D3;fontSize=18;strokeWidth=2;fontFamily=Helvetica;html=1;opacity=60;" parent="1" vertex="1">
          <mxGeometry x="244" y="1103" width="816" height="239.5" as="geometry" />
        </mxCell>
        <mxCell id="p6_sRNCzpyY48abny09--168" value="&lt;font style=&quot;font-size: 22px;&quot;&gt;&lt;b style=&quot;&quot;&gt;顯示警語視窗&lt;/b&gt;&lt;/font&gt;" style="rounded=1;fillColor=#23445D;strokeColor=none;strokeWidth=2;fontFamily=Helvetica;html=1;gradientColor=none;labelPosition=center;verticalLabelPosition=middle;align=center;verticalAlign=middle;fontColor=#FFFFFF;" parent="1" vertex="1">
          <mxGeometry x="385" y="1419" width="233.94" height="100" as="geometry" />
        </mxCell>
        <mxCell id="p6_sRNCzpyY48abny09--171" value="&lt;font style=&quot;color: rgb(0, 0, 0); font-size: 22px;&quot;&gt;有權限&lt;/font&gt;" style="rounded=0;whiteSpace=wrap;html=1;strokeColor=none;fillColor=#BAC8D3;fillStyle=hatch;" parent="1" vertex="1">
          <mxGeometry x="495" y="1312.5" width="90" height="30" as="geometry" />
        </mxCell>
        <mxCell id="p6_sRNCzpyY48abny09--169" value="" style="edgeStyle=elbowEdgeStyle;elbow=horizontal;strokeWidth=3;strokeColor=#0C343D;fontFamily=Helvetica;html=1;exitX=0.5;exitY=1;exitDx=0;exitDy=0;entryX=0.5;entryY=0;entryDx=0;entryDy=0;" parent="1" source="p6_sRNCzpyY48abny09--173" target="p6_sRNCzpyY48abny09--168" edge="1">
          <mxGeometry x="6.448979591836746" y="830.5" width="131.97278911564624" height="100" as="geometry">
            <mxPoint x="515.6448799999998" y="1291.1799999999998" as="sourcePoint" />
            <mxPoint x="510" y="1390" as="targetPoint" />
            <Array as="points">
              <mxPoint x="502" y="1220" />
            </Array>
          </mxGeometry>
        </mxCell>
        <mxCell id="p6_sRNCzpyY48abny09--172" value="&lt;span style=&quot;font-size: 22px;&quot;&gt;&lt;b&gt;顯示你未有權限&lt;/b&gt;&lt;/span&gt;" style="rounded=1;fillColor=#23445D;strokeColor=none;strokeWidth=2;fontFamily=Helvetica;html=1;gradientColor=none;labelPosition=center;verticalLabelPosition=middle;align=center;verticalAlign=middle;fontColor=#FFFFFF;" parent="1" vertex="1">
          <mxGeometry x="780" y="1201" width="220" height="80" as="geometry" />
        </mxCell>
        <mxCell id="p6_sRNCzpyY48abny09--173" value="&lt;b style=&quot;color: rgb(255, 255, 255); font-size: 22px; text-wrap-mode: nowrap;&quot;&gt;權限控管&lt;/b&gt;" style="rhombus;whiteSpace=wrap;html=1;strokeColor=none;fillColor=#23445D;" parent="1" vertex="1">
          <mxGeometry x="397.73" y="1152" width="208.48" height="140" as="geometry" />
        </mxCell>
        <mxCell id="p6_sRNCzpyY48abny09--176" value="" style="edgeStyle=elbowEdgeStyle;elbow=horizontal;strokeWidth=3;strokeColor=#0C343D;fontFamily=Helvetica;html=1;exitX=1;exitY=0.5;exitDx=0;exitDy=0;entryX=0.025;entryY=0.64;entryDx=0;entryDy=0;entryPerimeter=0;" parent="1" source="p6_sRNCzpyY48abny09--173" target="p6_sRNCzpyY48abny09--172" edge="1">
          <mxGeometry x="6.448979591836746" y="830.5" width="131.97278911564624" height="100" as="geometry">
            <mxPoint x="640.13" y="1270" as="sourcePoint" />
            <mxPoint x="640" y="1420" as="targetPoint" />
          </mxGeometry>
        </mxCell>
        <mxCell id="p6_sRNCzpyY48abny09--177" value="&lt;font style=&quot;color: rgb(0, 0, 0); font-size: 22px;&quot;&gt;無權限&lt;/font&gt;" style="rounded=0;whiteSpace=wrap;html=1;strokeColor=none;fillColor=#BAC8D3;fillStyle=hatch;" parent="1" vertex="1">
          <mxGeometry x="606.21" y="1194" width="90" height="30" as="geometry" />
        </mxCell>
        <mxCell id="p6_sRNCzpyY48abny09--178" value="&lt;span style=&quot;font-size: 22px;&quot;&gt;&lt;b&gt;UI 進入&lt;/b&gt;&lt;/span&gt;" style="rounded=1;fillColor=#23445D;strokeColor=none;strokeWidth=2;fontFamily=Helvetica;html=1;gradientColor=none;labelPosition=center;verticalLabelPosition=middle;align=center;verticalAlign=middle;fontColor=#FFFFFF;" parent="1" vertex="1">
          <mxGeometry x="394.73" y="970" width="220" height="80" as="geometry" />
        </mxCell>
        <mxCell id="p6_sRNCzpyY48abny09--182" value="" style="edgeStyle=elbowEdgeStyle;elbow=horizontal;strokeWidth=3;strokeColor=#0C343D;fontFamily=Helvetica;html=1;exitX=0.5;exitY=1;exitDx=0;exitDy=0;" parent="1" source="p6_sRNCzpyY48abny09--178" target="p6_sRNCzpyY48abny09--173" edge="1">
          <mxGeometry x="6.448979591836746" y="830.5" width="131.97278911564624" height="100" as="geometry">
            <mxPoint x="860" y="1309" as="sourcePoint" />
            <mxPoint x="502" y="1100" as="targetPoint" />
          </mxGeometry>
        </mxCell>
        <mxCell id="p6_sRNCzpyY48abny09--184" value="Step 3" style="strokeColor=#BAC8D3;fillColor=#23445D;fontSize=24;strokeWidth=2;horizontal=0;fontFamily=Helvetica;html=1;fontColor=#FFFFFF;fontStyle=0" parent="1" vertex="1">
          <mxGeometry x="154" y="1345.5" width="88" height="239" as="geometry" />
        </mxCell>
        <mxCell id="p6_sRNCzpyY48abny09--185" value="" style="strokeColor=#FFFFFF;fillColor=#BAC8D3;fontSize=18;strokeWidth=2;fontFamily=Helvetica;html=1;opacity=60;" parent="1" vertex="1">
          <mxGeometry x="245" y="1590" width="816" height="200" as="geometry" />
        </mxCell>
        <mxCell id="p6_sRNCzpyY48abny09--186" value="&lt;span style=&quot;font-size: 22px;&quot;&gt;&lt;b&gt;顯示 Chatbot&lt;/b&gt;&lt;/span&gt;" style="rounded=1;fillColor=#23445D;strokeColor=none;strokeWidth=2;fontFamily=Helvetica;html=1;gradientColor=none;labelPosition=center;verticalLabelPosition=middle;align=center;verticalAlign=middle;fontColor=#FFFFFF;" parent="1" vertex="1">
          <mxGeometry x="385" y="1643" width="233.94" height="100" as="geometry" />
        </mxCell>
        <mxCell id="p6_sRNCzpyY48abny09--187" value="" style="edgeStyle=elbowEdgeStyle;elbow=horizontal;strokeWidth=3;strokeColor=#0C343D;fontFamily=Helvetica;html=1;exitX=0.5;exitY=1;exitDx=0;exitDy=0;" parent="1" source="p6_sRNCzpyY48abny09--168" target="p6_sRNCzpyY48abny09--186" edge="1">
          <mxGeometry x="6.448979591836746" y="830.5" width="131.97278911564624" height="100" as="geometry">
            <mxPoint x="518.8248799999998" y="1518.9999999999998" as="sourcePoint" />
            <mxPoint x="500" y="1580" as="targetPoint" />
            <Array as="points">
              <mxPoint x="500" y="1520" />
            </Array>
          </mxGeometry>
        </mxCell>
        <mxCell id="p6_sRNCzpyY48abny09--189" value="&lt;font style=&quot;color: rgb(0, 0, 0); font-size: 22px;&quot;&gt;同意&lt;/font&gt;" style="rounded=0;whiteSpace=wrap;html=1;strokeColor=none;fillColor=#BAC8D3;fillStyle=hatch;" parent="1" vertex="1">
          <mxGeometry x="495" y="1540" width="90" height="30" as="geometry" />
        </mxCell>
        <mxCell id="p6_sRNCzpyY48abny09--190" value="&lt;span style=&quot;font-size: 22px;&quot;&gt;&lt;b&gt;無法進入 Chatbot&lt;/b&gt;&lt;/span&gt;" style="rounded=1;fillColor=#23445D;strokeColor=none;strokeWidth=2;fontFamily=Helvetica;html=1;gradientColor=none;labelPosition=center;verticalLabelPosition=middle;align=center;verticalAlign=middle;fontColor=#FFFFFF;" parent="1" vertex="1">
          <mxGeometry x="790" y="1450" width="220" height="80" as="geometry" />
        </mxCell>
        <mxCell id="p6_sRNCzpyY48abny09--191" value="" style="edgeStyle=elbowEdgeStyle;elbow=horizontal;strokeWidth=3;strokeColor=#0C343D;fontFamily=Helvetica;html=1;entryX=0.013;entryY=0.604;entryDx=0;entryDy=0;entryPerimeter=0;exitX=1;exitY=0.5;exitDx=0;exitDy=0;" parent="1" source="p6_sRNCzpyY48abny09--168" target="p6_sRNCzpyY48abny09--190" edge="1">
          <mxGeometry x="6.448979591836746" y="830.5" width="131.97278911564624" height="100" as="geometry">
            <mxPoint x="732" y="1449" as="sourcePoint" />
            <mxPoint x="730" y="1570" as="targetPoint" />
            <Array as="points">
              <mxPoint x="710" y="1487" />
            </Array>
          </mxGeometry>
        </mxCell>
        <mxCell id="p6_sRNCzpyY48abny09--192" value="&lt;font style=&quot;color: rgb(0, 0, 0); font-size: 22px;&quot;&gt;不同意&lt;/font&gt;" style="rounded=0;whiteSpace=wrap;html=1;strokeColor=none;fillColor=#BAC8D3;fillStyle=hatch;" parent="1" vertex="1">
          <mxGeometry x="618.94" y="1440" width="90" height="30" as="geometry" />
        </mxCell>
        <mxCell id="p6_sRNCzpyY48abny09--193" value="Step 4" style="strokeColor=#BAC8D3;fillColor=#23445D;fontSize=24;strokeWidth=2;horizontal=0;fontFamily=Helvetica;html=1;fontColor=#FFFFFF;fontStyle=0" parent="1" vertex="1">
          <mxGeometry x="154" y="1590" width="88" height="200" as="geometry" />
        </mxCell>
        <mxCell id="p6_sRNCzpyY48abny09--194" value="" style="strokeColor=#FFFFFF;fillColor=#BAC8D3;fontSize=18;strokeWidth=2;fontFamily=Helvetica;html=1;opacity=60;" parent="1" vertex="1">
          <mxGeometry x="254" y="1790" width="806" height="200" as="geometry" />
        </mxCell>
        <mxCell id="p6_sRNCzpyY48abny09--195" value="Step 5" style="strokeColor=#BAC8D3;fillColor=#23445D;fontSize=24;strokeWidth=2;horizontal=0;fontFamily=Helvetica;html=1;fontColor=#FFFFFF;fontStyle=0" parent="1" vertex="1">
          <mxGeometry x="154" y="1794" width="88" height="200" as="geometry" />
        </mxCell>
        <mxCell id="p6_sRNCzpyY48abny09--196" value="&lt;span style=&quot;font-size: 22px;&quot;&gt;&lt;b&gt;自動彈出&lt;/b&gt;&lt;/span&gt;&lt;div&gt;&lt;span style=&quot;font-size: 22px;&quot;&gt;&lt;b&gt;機器人切換&lt;/b&gt;&lt;/span&gt;&lt;/div&gt;" style="rounded=1;fillColor=#23445D;strokeColor=none;strokeWidth=2;fontFamily=Helvetica;html=1;gradientColor=none;labelPosition=center;verticalLabelPosition=middle;align=center;verticalAlign=middle;fontColor=#FFFFFF;" parent="1" vertex="1">
          <mxGeometry x="387.76" y="1846" width="233.94" height="100" as="geometry" />
        </mxCell>
        <mxCell id="p6_sRNCzpyY48abny09--197" value="" style="edgeStyle=elbowEdgeStyle;elbow=horizontal;strokeWidth=3;strokeColor=#0C343D;fontFamily=Helvetica;html=1;exitX=0.5;exitY=1;exitDx=0;exitDy=0;" parent="1" source="p6_sRNCzpyY48abny09--186" edge="1">
          <mxGeometry x="6.448979591836746" y="830.5" width="131.97278911564624" height="100" as="geometry">
            <mxPoint x="502.97" y="1730" as="sourcePoint" />
            <mxPoint x="500.97" y="1851" as="targetPoint" />
            <Array as="points" />
          </mxGeometry>
        </mxCell>
      </root>
    </mxGraphModel>
  </diagram>
</mxfile>
